<svg aria-hidden="true" style="position:absolute;width:0;height:0;overflow:hidden" xmlns="http://www.w3.org/2000/svg">
  <defs>
    <symbol id="Add" viewBox="0 0 31 32">
      <path stroke-linejoin="round" stroke-linecap="round" stroke-width="2.56" d="M15.36 3.84v23.04M3.84 15.36h23.04"/>
    </symbol>
    <symbol id="Analytics-Pie" viewBox="0 0 31 32">
      <path stroke-linejoin="round" stroke-linecap="round" stroke-width="2.56" d="M17.189 3.021v10.971h10.971c0-2.91-1.156-5.7-3.213-7.758s-4.848-3.213-7.758-3.213v0z"/>
      <path stroke-linejoin="round" stroke-linecap="round" stroke-width="2.56" d="M13.531 6.679c-2.17 0-4.291 0.643-6.095 1.849s-3.21 2.919-4.041 4.924c-0.83 2.005-1.048 4.211-0.624 6.339s1.468 4.083 3.003 5.618c1.534 1.534 3.489 2.579 5.618 3.003s4.334 0.206 6.339-0.624c2.005-0.83 3.718-2.237 4.924-4.041s1.849-3.925 1.849-6.095h-10.972v-10.971z"/>
    </symbol>
    <symbol id="Arrow-External-Left" viewBox="0 0 31 32">
      <path stroke-linejoin="round" stroke-linecap="round" stroke-width="2.56" d="m25.6 26.061-20.48-20.48M5.12 24.89v-19.309h19.309"/>
    </symbol>
    <symbol id="Arrow-External-Right" viewBox="0 0 31 32">
      <path stroke-linejoin="round" stroke-linecap="round" stroke-width="2.56" d="m5.12 26.061 20.48-20.48M25.6 24.89v-19.309h-19.309"/>
    </symbol>
    <symbol id="Arrow-Left" viewBox="0 0 31 32">
      <path stroke-linejoin="round" stroke-linecap="round" stroke-width="2.56" d="m14.67 4.992-10.83 10.83 10.83 10.83M3.84 15.821h23.04"/>
    </symbol>
    <symbol id="Arrow-Right" viewBox="0 0 31 32">
      <path stroke-linejoin="round" stroke-linecap="round" stroke-width="2.56" d="m16.05 4.992 10.83 10.83-10.83 10.83M26.88 15.821h-23.04"/>
    </symbol>
    <symbol id="Bell" viewBox="0 0 31 32">
      <path stroke-linejoin="round" stroke-linecap="round" stroke-width="2.56" d="M13.085 26.916c.145.492.445.925.855 1.232s.91.474 1.423.474c.513 0 1.012-.166 1.423-.474s.711-.74.855-1.232M15.36 5.582v-2.56M15.36 5.582c2.263 0 4.434.899 6.034 2.499s2.499 3.771 2.499 6.034c0 8.017 1.707 9.387 1.707 9.387h-20.481c0 0 1.707-2.18 1.707-9.387 0-2.263.899-4.434 2.499-6.034s3.771-2.499 6.034-2.499v0z"/>
    </symbol>
    <symbol id="Bin" viewBox="0 0 31 32">
      <path stroke-linejoin="round" stroke-linecap="round" stroke-width="2.56" d="M22.253 27.637h-13.785c-.522 0-1.023-.207-1.392-.577s-.577-.87-.577-1.392v-17.723h17.723v17.723c0 .522-.207 1.023-.577 1.392s-.87.577-1.392.577zM12.406 21.729v-7.877M18.314 21.729v-7.877M2.56 7.945h25.6M18.314 4.006h-5.908c-.522 0-1.023.207-1.392.577s-.577.87-.577 1.392v1.969h9.846v-1.969c0-.522-.207-1.023-.577-1.392s-.87-.577-1.393-.577z"/>
    </symbol>
    <symbol id="Calendar" viewBox="0 0 31 32">
      <path stroke-linejoin="round" stroke-linecap="round" stroke-width="2.56" d="M26.453 6.435h-22.187c-.943 0-1.707.764-1.707 1.707v18.773c0 .943.764 1.707 1.707 1.707h22.187c.942 0 1.707-.764 1.707-1.707v-18.773c0-.943-.764-1.707-1.707-1.707zM2.56 13.261h25.6M9.386 8.995v-5.973M21.334 8.995v-5.973"/>
    </symbol>
    <symbol id="Camera" viewBox="0 0 31 32">
      <path stroke-linejoin="round" stroke-linecap="round" stroke-width="2.56" d="M11.946 16.213c0 0.784 0.155 1.561 0.455 2.286s0.74 1.383 1.295 1.938c0.555 0.555 1.213 0.995 1.938 1.295s1.501 0.455 2.286 0.455c0.784 0 1.561-0.154 2.286-0.455s1.383-0.74 1.938-1.295c0.555-0.555 0.995-1.213 1.295-1.938s0.455-1.501 0.455-2.286c0-0.784-0.154-1.561-0.455-2.286s-0.74-1.383-1.295-1.938c-0.555-0.555-1.213-0.995-1.938-1.295s-1.501-0.455-2.286-0.455c-0.785 0-1.561 0.155-2.286 0.455s-1.383 0.74-1.938 1.295c-0.555 0.555-0.995 1.213-1.295 1.938s-0.455 1.501-0.455 2.286v0z"/>
      <path stroke-linejoin="round" stroke-linecap="round" stroke-width="2.56" d="M23.893 8.533l-1.235-2.47c-0.142-0.284-0.36-0.522-0.629-0.689s-0.58-0.255-0.898-0.255h-6.424c-0.317-0-0.628 0.088-0.898 0.255s-0.488 0.405-0.629 0.689l-1.235 2.47h-7.68c-0.453 0-0.887 0.18-1.207 0.5s-0.5 0.754-0.5 1.207v13.653c0 0.453 0.18 0.887 0.5 1.207s0.754 0.5 1.207 0.5h22.187c0.453 0 0.887-0.18 1.207-0.5s0.5-0.754 0.5-1.207v-13.653c0-0.453-0.18-0.887-0.5-1.207s-0.754-0.5-1.207-0.5h-2.56z"/>
      <path stroke-linejoin="round" stroke-linecap="round" stroke-width="2.56" d="M6.542 11.947c.169 0 .334.05.474.144s.25.227.314.383c.065.156.082.328.049.493s-.114.318-.234.437c-.119.119-.271.201-.437.234s-.337.016-.493-.049c-.156-.065-.289-.174-.383-.314s-.144-.305-.144-.474c0-.226.09-.443.25-.603s.377-.25.603-.25zM7.68 8.533v-1.707"/>
    </symbol>
    <symbol id="Care" viewBox="0 0 31 32">
      <path stroke-linejoin="round" stroke-linecap="round" stroke-width="2.56" d="M15.36 22.67c-0.149 0-0.295 0.044-0.419 0.127s-0.221 0.201-0.278 0.338c-0.057 0.138-0.072 0.289-0.043 0.435s0.101 0.28 0.206 0.386c0.105 0.105 0.24 0.177 0.386 0.206s0.298 0.014 0.435-0.043c0.138-0.057 0.255-0.154 0.338-0.277s0.127-0.27 0.127-0.419c0-0.2-0.079-0.392-0.221-0.533s-0.333-0.221-0.533-0.221z"/>
      <path stroke-linecap="round" stroke-width="2.56" d="M15.36 19.224v-8.533"/>
      <path stroke-linejoin="round" stroke-linecap="round" stroke-width="2.56" d="M17.204 4.17c-0.169-0.345-0.432-0.635-0.758-0.838s-0.702-0.311-1.086-0.311c-0.384 0-0.76 0.108-1.086 0.311s-0.589 0.493-0.758 0.838l-10.778 21.957c-0.13 0.264-0.19 0.557-0.175 0.85s0.104 0.579 0.26 0.828c0.156 0.25 0.372 0.455 0.629 0.598s0.546 0.217 0.841 0.217h22.137c0.294 0 0.583-0.075 0.841-0.217s0.474-0.349 0.629-0.598c0.156-0.25 0.245-0.535 0.26-0.828s-0.046-0.586-0.175-0.85l-10.778-21.957z"/>
    </symbol>
    <symbol id="Check" viewBox="0 0 31 32">
      <path stroke-linejoin="round" stroke-linecap="round" stroke-width="2.56" d="M2.765 17.621l7.197 7.197 17.993-17.994"/>
    </symbol>
    <symbol id="Chevron-Down" viewBox="0 0 31 32">
      <path stroke-linejoin="round" stroke-linecap="round" stroke-width="2.56" d="M6.4 11.341l8.96 8.96 8.96-8.96"/>
    </symbol>
    <symbol id="Chevron-Left" viewBox="0 0 31 32">
      <path stroke-linejoin="round" stroke-linecap="round" stroke-width="2.56" d="M21.12 4.301l-11.52 11.52 11.52 11.52"/>
    </symbol>
    <symbol id="Chevron-Right" viewBox="0 0 31 32">
      <path stroke-linejoin="round" stroke-linecap="round" stroke-width="2.56" d="M9.6 27.341l11.52-11.52-11.52-11.52"/>
    </symbol>
    <symbol id="Chevron-Up" viewBox="0 0 31 32">
      <path stroke-linejoin="round" stroke-linecap="round" stroke-width="2.56" d="M6.4 20.301l8.96-8.96 8.96 8.96"/>
    </symbol>
    <symbol id="Circle-Check" viewBox="0 0 31 32">
      <path stroke-linejoin="round" stroke-linecap="round" stroke-width="2.56" d="M9.053 16.723l3.604 3.604 9.011-9.011"/>
      <path stroke-linejoin="round" stroke-linecap="round" stroke-width="2.56" d="M2.56 15.821c0 3.395 1.349 6.65 3.749 9.051s5.656 3.749 9.051 3.749c3.395 0 6.651-1.349 9.051-3.749s3.749-5.656 3.749-9.051c0-3.395-1.349-6.651-3.749-9.051s-5.656-3.749-9.051-3.749c-3.395 0-6.65 1.349-9.051 3.749s-3.749 5.656-3.749 9.051v0z"/>
    </symbol>
    <symbol id="Clock" viewBox="0 0 31 32">
      <path stroke-linejoin="round" stroke-linecap="round" stroke-width="2.56" d="M2.56 15.821c0 3.395 1.349 6.65 3.749 9.051s5.656 3.749 9.051 3.749c3.395 0 6.651-1.349 9.051-3.749s3.749-5.656 3.749-9.051c0-3.395-1.349-6.651-3.749-9.051s-5.656-3.749-9.051-3.749c-3.395 0-6.65 1.349-9.051 3.749s-3.749 5.656-3.749 9.051v0zM15.36 15.821v-4.571M15.36 15.821l5.714 5.715"/>
    </symbol>
    <symbol id="Close" viewBox="0 0 31 32">
      <path stroke-linejoin="round" stroke-linecap="round" stroke-width="2.56" d="m3.84 27.341 23.04-23.04M26.88 27.341l-23.04-23.04"/>
    </symbol>
    <symbol id="Cog" viewBox="0 0 31 32">
      <path stroke-linejoin="round" stroke-linecap="round" stroke-width="2.56" d="M13.706 4.477c0.209 0.232 0.464 0.417 0.749 0.544s0.594 0.192 0.906 0.192c0.312 0 0.621-0.066 0.906-0.192s0.54-0.312 0.749-0.544l1.077-1.182c0.309-0.342 0.716-0.579 1.165-0.68s0.919-0.061 1.344 0.115c0.425 0.176 0.786 0.48 1.032 0.869s0.365 0.845 0.342 1.305l-0.081 1.594c-0.016 0.311 0.034 0.622 0.146 0.912s0.283 0.554 0.503 0.775c0.22 0.22 0.484 0.392 0.774 0.504s0.601 0.162 0.912 0.147l1.594-0.081c0.46-0.023 0.915 0.097 1.303 0.344s0.692 0.607 0.867 1.032c0.176 0.425 0.216 0.894 0.115 1.343s-0.339 0.855-0.68 1.164l-1.186 1.070c-0.232 0.209-0.417 0.465-0.544 0.75s-0.192 0.594-0.192 0.906c0 0.312 0.065 0.621 0.192 0.906s0.312 0.541 0.544 0.75l1.186 1.070c0.342 0.309 0.579 0.716 0.681 1.165s0.061 0.919-0.115 1.344-0.48 0.786-0.869 1.032c-0.389 0.246-0.845 0.365-1.305 0.342l-1.594-0.081c-0.312-0.016-0.623 0.034-0.914 0.146s-0.556 0.284-0.776 0.504c-0.221 0.221-0.393 0.485-0.504 0.776s-0.162 0.603-0.146 0.914l0.081 1.594c0.020 0.457-0.101 0.91-0.346 1.296s-0.605 0.688-1.028 0.863-0.89 0.216-1.337 0.117c-0.447-0.099-0.853-0.334-1.162-0.671l-1.071-1.185c-0.209-0.232-0.465-0.417-0.75-0.543s-0.594-0.192-0.906-0.192c-0.312 0-0.621 0.066-0.906 0.192s-0.54 0.312-0.75 0.543l-1.076 1.185c-0.309 0.339-0.715 0.575-1.162 0.676s-0.915 0.060-1.339-0.115c-0.424-0.175-0.784-0.477-1.030-0.864s-0.367-0.841-0.346-1.299l0.082-1.594c0.016-0.312-0.034-0.623-0.146-0.914s-0.284-0.556-0.504-0.776c-0.221-0.221-0.485-0.392-0.776-0.504s-0.603-0.162-0.914-0.145l-1.594 0.081c-0.46 0.024-0.915-0.095-1.305-0.34s-0.693-0.605-0.87-1.030c-0.177-0.425-0.217-0.894-0.117-1.343s0.338-0.856 0.679-1.165l1.185-1.070c0.232-0.209 0.417-0.465 0.543-0.75s0.192-0.594 0.192-0.906c0-0.312-0.065-0.621-0.192-0.906s-0.312-0.541-0.543-0.75l-1.185-1.076c-0.34-0.309-0.577-0.715-0.677-1.163s-0.060-0.916 0.115-1.341c0.176-0.424 0.478-0.784 0.866-1.030s0.842-0.366 1.301-0.344l1.594 0.081c0.312 0.016 0.624-0.033 0.916-0.145s0.557-0.284 0.778-0.505c0.221-0.221 0.393-0.486 0.505-0.778s0.161-0.604 0.144-0.916l-0.076-1.595c-0.021-0.458 0.099-0.912 0.345-1.3s0.606-0.69 1.030-0.865c0.424-0.176 0.892-0.216 1.34-0.116s0.854 0.336 1.163 0.676l1.070 1.182z"/>
      <path stroke-linejoin="round" stroke-linecap="round" stroke-width="2.56" d="M15.361 20.487c2.829 0 5.123-2.294 5.123-5.123s-2.294-5.123-5.123-5.123-5.123 2.294-5.123 5.123c0 2.829 2.294 5.123 5.123 5.123z"/>
    </symbol>
    <symbol id="Coin" viewBox="0 0 31 32">
      <path stroke-linejoin="round" stroke-linecap="round" stroke-width="2.56" d="M2.56 15.36c0 3.395 1.349 6.651 3.749 9.051s5.656 3.749 9.051 3.749c3.395 0 6.651-1.349 9.051-3.749s3.749-5.656 3.749-9.051c0-3.395-1.349-6.65-3.749-9.051s-5.656-3.749-9.051-3.749c-3.395 0-6.65 1.349-9.051 3.749s-3.749 5.656-3.749 9.051v0z"/>
      <path stroke-linejoin="round" stroke-linecap="round" stroke-width="2.56" d="M12.8 17.92c0 .506.15 1.001.431 1.422s.681.749 1.149.943c.468.194.983.244 1.479.146s.953-.343 1.311-.701.602-.814.701-1.311c.099-.497.048-1.011-.146-1.479s-.522-.868-.943-1.149c-.421-.281-.916-.431-1.422-.431s-1.001-.15-1.422-.431c-.421-.281-.749-.681-.943-1.149s-.244-.983-.146-1.479c.099-.497.343-.953.701-1.311s.814-.602 1.311-.701c.497-.099 1.011-.048 1.479.146s.868.522 1.149.943c.281.421.431.916.431 1.422M15.36 8.533v1.707M15.36 20.48v1.707"/>
    </symbol>
    <symbol id="Email" viewBox="0 0 31 32">
      <path stroke-linejoin="round" stroke-linecap="round" stroke-width="2.56" d="M28.16 9.6v12.8c0 0.849-0.337 1.663-0.937 2.263s-1.414 0.937-2.263 0.937h-19.2c-0.849 0-1.663-0.337-2.263-0.937s-0.937-1.414-0.937-2.263v-12.8"/>
      <path stroke-linejoin="round" stroke-linecap="round" stroke-width="2.56" d="M28.16 9.6c0-0.849-0.337-1.663-0.937-2.263s-1.414-0.937-2.263-0.937h-19.2c-0.849 0-1.663 0.337-2.263 0.937s-0.937 1.414-0.937 2.263l11.104 6.933c0.509 0.318 1.096 0.486 1.696 0.486s1.187-0.169 1.696-0.486l11.104-6.933z"/>
    </symbol>
    <symbol id="Graph-Ascend" viewBox="0 0 31 32">
      <path stroke-linejoin="round" stroke-linecap="round" stroke-width="2.56" d="M29.441 16.76v-8.448h-8.448"/>
      <path stroke-linejoin="round" stroke-linecap="round" stroke-width="2.56" d="M29.44 8.312l-9.936 9.936c-0.174 0.174-0.381 0.313-0.609 0.407s-0.472 0.143-0.719 0.143-0.491-0.049-0.719-0.143c-0.228-0.094-0.435-0.233-0.609-0.407l-3.915-3.915c-0.174-0.174-0.381-0.313-0.609-0.407s-0.472-0.143-0.719-0.143c-0.247 0-0.491 0.049-0.719 0.143s-0.435 0.233-0.609 0.407l-8.997 8.997"/>
    </symbol>
    <symbol id="Graph-Descend" viewBox="0 0 31 32">
      <path stroke-linejoin="round" stroke-linecap="round" stroke-width="2.56" d="M28.16 14.968v7.68h-7.68"/>
      <path stroke-linejoin="round" stroke-linecap="round" stroke-width="2.56" d="M28.16 22.648l-9.033-9.033c-0.158-0.159-0.347-0.284-0.554-0.37s-0.429-0.13-0.653-0.13-0.446 0.044-0.653 0.13c-0.207 0.086-0.395 0.212-0.554 0.37l-3.559 3.559c-0.158 0.159-0.347 0.284-0.554 0.37s-0.429 0.13-0.653 0.13-0.446-0.044-0.653-0.13c-0.207-0.086-0.395-0.212-0.554-0.37l-8.179-8.179"/>
    </symbol>
    <symbol id="Heart" viewBox="0 0 31 32">
      <path stroke-linejoin="round" stroke-linecap="round" stroke-width="2.56" d="M15.361 27.020l-10.909-11.377c-0.959-0.958-1.591-2.194-1.809-3.531s-0.007-2.71 0.599-3.922v0c0.457-0.915 1.126-1.707 1.95-2.313s1.78-1.007 2.789-1.171c1.009-0.164 2.043-0.085 3.016 0.229s1.858 0.855 2.581 1.578l1.782 1.781 1.782-1.781c0.723-0.723 1.608-1.264 2.581-1.578s2.007-0.393 3.016-0.229 1.965 0.565 2.789 1.171c0.824 0.606 1.492 1.399 1.95 2.313 0.606 1.212 0.815 2.583 0.598 3.92s-0.849 2.572-1.807 3.53l-10.91 11.381z"/>
    </symbol>
    <symbol id="Home" viewBox="0 0 31 32">
      <path stroke-linejoin="round" stroke-linecap="round" stroke-width="2.56" d="M27.729 12.35l-12.364-9.329-12.375 9.329c-0.256 0.236-0.41 0.563-0.429 0.91v14.245c0.001 0.295 0.118 0.577 0.327 0.786s0.491 0.326 0.786 0.327h7.42v-5.969c0-1.131 0.449-2.216 1.25-3.017s1.885-1.25 3.017-1.25c1.132 0 2.217 0.45 3.017 1.25s1.249 1.885 1.249 3.017v5.973h7.419c0.295-0.001 0.578-0.118 0.786-0.327s0.326-0.491 0.328-0.786v-14.249c-0.020-0.347-0.173-0.674-0.429-0.91z"/>
    </symbol>
    <symbol id="Laptop" viewBox="0 0 31 32">
      <path stroke-linejoin="round" stroke-linecap="round" stroke-width="2.56" d="M25.6 17.92v-11.093c0-0.453-0.18-0.887-0.5-1.207s-0.754-0.5-1.207-0.5h-17.066c-0.453 0-0.887 0.18-1.207 0.5s-0.5 0.754-0.5 1.207v11.093h20.48z"/>
      <path stroke-linejoin="round" stroke-linecap="round" stroke-width="2.56" d="M28.013 23.2c.115.26.164.544.142.828s-.115.557-.27.795c-.155.238-.367.434-.617.57s-.53.207-.814.207h-22.186c-.284 0-.564-.071-.814-.207s-.462-.332-.617-.57c-.155-.238-.248-.512-.27-.795s.026-.568.142-.828l2.413-5.28h20.48l2.413 5.28zM13.654 22.186h3.413"/>
    </symbol>
    <symbol id="Less" viewBox="0 0 31 32">
      <path stroke-linejoin="round" stroke-linecap="round" stroke-width="2.56" d="M3.84 15.36h23.040"/>
    </symbol>
    <symbol id="Link" viewBox="0 0 31 32">
      <path stroke-linejoin="round" stroke-linecap="round" stroke-width="2.56" d="M11.007 14.864c-.787-.046-1.574.074-2.311.354s-1.407.711-1.965 1.268l-1.327 1.328c-1.056 1.056-1.65 2.489-1.65 3.982s.593 2.926 1.65 3.982c1.056 1.056 2.489 1.65 3.982 1.65s2.926-.593 3.982-1.65l1.328-1.328c.556-.559.988-1.228 1.267-1.965s.4-1.524.354-2.311M14.402 11.469c-.046-.787.074-1.574.354-2.311s.711-1.407 1.268-1.965l1.328-1.327c1.056-1.056 2.489-1.65 3.982-1.65s2.926.593 3.982 1.65 1.65 2.489 1.65 3.982c0 1.494-.593 2.926-1.65 3.983l-1.328 1.328c-.558.556-1.228.988-1.965 1.267s-1.524.4-2.311.354M10.713 20.467l9.292-9.292"/>
    </symbol>
    <symbol id="Mark" viewBox="0 0 31 32">
      <path stroke-linejoin="round" stroke-linecap="round" stroke-width="2.56" d="M25.899 14.218c0 8.262-8.462 13.352-10.221 14.321-0.097 0.054-0.207 0.082-0.318 0.082s-0.221-0.028-0.318-0.082c-1.76-0.97-10.219-6.060-10.219-14.321 0-6.586 3.952-11.197 10.538-11.197s10.538 4.61 10.538 11.197z"/>
      <path stroke-linejoin="round" stroke-linecap="round" stroke-width="2.56" d="M10.091 13.56c0 1.397 0.555 2.738 1.543 3.726s2.328 1.543 3.726 1.543c1.398 0 2.738-0.555 3.726-1.543s1.543-2.328 1.543-3.726c0-1.397-0.555-2.738-1.543-3.726s-2.328-1.543-3.726-1.543c-1.397 0-2.738 0.555-3.726 1.543s-1.543 2.328-1.543 3.726v0z"/>
    </symbol>
    <symbol id="Message" viewBox="0 0 31 32">
      <path stroke-linejoin="round" stroke-linecap="round" stroke-width="2.56" d="M26.453 23.501h-11.947l-6.827 5.12v-5.12h-3.413c-0.453 0-0.887-0.18-1.207-0.5s-0.5-0.754-0.5-1.207v-17.067c0-0.453 0.18-0.887 0.5-1.207s0.754-0.5 1.207-0.5h22.187c0.453 0 0.887 0.18 1.207 0.5s0.5 0.754 0.5 1.207v17.067c0 0.453-0.18 0.887-0.5 1.207s-0.754 0.5-1.207 0.5z"/>
    </symbol>
    <symbol id="Mobile" viewBox="0 0 31 32">
      <path stroke-linejoin="round" stroke-linecap="round" stroke-width="2.56" d="M20.16 3.021h-9.6c-1.767 0-3.2 1.433-3.2 3.2v19.2c0 1.767 1.433 3.2 3.2 3.2h9.6c1.767 0 3.2-1.433 3.2-3.2v-19.2c0-1.767-1.433-3.2-3.2-3.2zM13.475 23.302h3.769"/>
    </symbol>
    <symbol id="Password" viewBox="0 0 31 32">
      <path stroke-linejoin="round" stroke-linecap="round" stroke-width="2.56" d="M21.76 12.16h-12.8c-1.767 0-3.2 1.433-3.2 3.2v9.6c0 1.767 1.433 3.2 3.2 3.2h12.8c1.767 0 3.2-1.433 3.2-3.2v-9.6c0-1.767-1.433-3.2-3.2-3.2zM15.36 2.56c-1.697 0-3.325.674-4.525 1.875s-1.875 2.828-1.875 4.525v3.2h12.8v-3.2c0-1.697-.674-3.325-1.875-4.525s-2.828-1.875-4.525-1.875v0z"/>
    </symbol>
    <symbol id="Pencil" viewBox="0 0 31 32">
      <path stroke-linejoin="round" stroke-linecap="round" stroke-width="2.56" d="M26.953 4.228c-.388-.386-.848-.691-1.354-.898s-1.048-.312-1.595-.308c-.547.004-1.088.116-1.591.33s-.959.525-1.342.917l-16.497 16.497-2.014 7.856 7.856-2.015 16.497-16.497c.391-.382.703-.838.917-1.341s.326-1.044.33-1.591-.101-1.089-.308-1.595c-.207-.506-.512-.966-.899-1.354v0zM20.6 4.74l5.841 5.841M4.575 20.764l5.847 5.837"/>
    </symbol>
    <symbol id="Phone" viewBox="0 0 31 32">
      <path stroke-linejoin="round" stroke-linecap="round" stroke-width="2.56" d="M18.818 27.165l0.014 0.010c1.209 0.77 2.644 1.104 4.069 0.948s2.753-0.794 3.766-1.808l0.88-0.88c0.195-0.195 0.35-0.426 0.455-0.681s0.16-0.528 0.16-0.803-0.054-0.549-0.16-0.803c-0.106-0.255-0.26-0.486-0.455-0.681l-3.712-3.709c-0.195-0.195-0.426-0.35-0.681-0.455s-0.528-0.16-0.803-0.16-0.549 0.054-0.803 0.16c-0.255 0.106-0.486 0.26-0.681 0.455-0.393 0.393-0.927 0.615-1.484 0.615s-1.090-0.221-1.484-0.615l-5.935-5.936c-0.393-0.394-0.614-0.927-0.614-1.484s0.221-1.090 0.614-1.484c0.195-0.195 0.35-0.426 0.455-0.681s0.16-0.528 0.16-0.803c0-0.276-0.054-0.549-0.16-0.803s-0.26-0.486-0.455-0.681l-3.71-3.709c-0.394-0.393-0.927-0.614-1.484-0.614s-1.090 0.221-1.484 0.614l-0.881 0.88c-1.014 1.013-1.651 2.342-1.807 3.766s0.178 2.86 0.948 4.069l0.008 0.014c4.066 6.016 9.248 11.197 15.264 15.262v0z"/>
    </symbol>
    <symbol id="Report" viewBox="0 0 31 32">
      <path stroke-linejoin="round" stroke-linecap="round" stroke-width="2.56" d="M27.733 26.453c0 0.453-0.18 0.887-0.5 1.207s-0.754 0.5-1.207 0.5h-20.48c-0.453 0-0.887-0.18-1.207-0.5s-0.5-0.754-0.5-1.207v-22.187c0-0.453 0.18-0.887 0.5-1.207s0.754-0.5 1.207-0.5h17.067c0.444 0.001 0.871 0.175 1.189 0.485l3.413 3.28c0.163 0.159 0.293 0.349 0.381 0.558s0.134 0.435 0.134 0.662l0.002 18.908z"/>
      <path stroke-linejoin="round" stroke-linecap="round" stroke-width="2.56" d="M8.96 10.24v12.8h13.653"/>
      <path stroke-linejoin="round" stroke-linecap="round" stroke-width="2.56" d="M8.96 19.627l3.825-3.57c0.413-0.375 0.95-0.583 1.508-0.583s1.095 0.208 1.508 0.583l0.826 0.771c0.237 0.217 0.517 0.38 0.823 0.478s0.628 0.129 0.947 0.091c0.316-0.033 0.62-0.135 0.891-0.3s0.503-0.387 0.678-0.651l1.789-2.792"/>
    </symbol>
    <symbol id="Search" viewBox="0 0 31 32">
      <path stroke-linejoin="round" stroke-linecap="round" stroke-width="2.56" d="M13.938 25.316c6.284 0 11.378-5.094 11.378-11.378s-5.094-11.378-11.378-11.378c-6.284 0-11.378 5.094-11.378 11.378s5.094 11.378 11.378 11.378zM28.16 28.16l-6.187-6.187"/>
    </symbol>
    <symbol id="Send" viewBox="0 0 31 32">
      <path stroke-linejoin="round" stroke-linecap="round" stroke-width="2.56" d="M3.821 13.949c-.355-.1-.668-.311-.894-.602s-.353-.647-.362-1.015.1-.73.312-1.032c.212-.302.514-.528.864-.645l23.274-7.591c.152-.05.316-.056.472-.019s.299.117.412.23c.114.113.194.255.232.411s.032.319-.017.472l-7.585 23.285c-.117.35-.343.653-.644.865s-.664.322-1.033.313c-.369-.009-.725-.136-1.016-.363s-.502-.541-.601-.896l-2.237-9.296c-.225-.936-.956-1.666-1.892-1.89l-9.285-2.227zM27.899 3.273l-13.269 13.269"/>
    </symbol>
    <symbol id="Share" viewBox="0 0 31 32">
      <path stroke-linejoin="round" stroke-linecap="round" stroke-width="2.56" d="M2.56 14.907c0 1.212.482 2.375 1.339 3.232s2.02 1.339 3.232 1.339c1.212 0 2.375-.482 3.232-1.339s1.339-2.02 1.339-3.232c0-1.212-.482-2.375-1.339-3.232s-2.02-1.339-3.232-1.339c-1.212 0-2.375.482-3.232 1.339s-1.339 2.02-1.339 3.232v0zM19.017 8.507c0 1.212.482 2.375 1.339 3.232s2.02 1.339 3.233 1.339c1.212 0 2.375-.482 3.232-1.339s1.339-2.02 1.339-3.232-.482-2.375-1.339-3.232c-.857-.857-2.02-1.339-3.232-1.339s-2.375.482-3.233 1.339c-.857.857-1.339 2.02-1.339 3.232zM19.017 23.136c0 1.212.482 2.375 1.339 3.232s2.02 1.339 3.233 1.339c1.212 0 2.375-.482 3.232-1.339s1.339-2.02 1.339-3.233-.482-2.375-1.339-3.233c-.857-.857-2.02-1.339-3.232-1.339s-2.375.482-3.233 1.339c-.857.857-1.339 2.02-1.339 3.233zM11.394 13.25l7.934-3.085M11.221 16.953l8.277 4.139"/>
    </symbol>
    <symbol id="Sync" viewBox="0 0 31 32">
      <path stroke-linejoin="round" stroke-linecap="round" stroke-width="2.56" d="M7.68 18.377v5.12h-5.12M23.04 13.257v-5.12h5.12"/>
      <path stroke-linejoin="round" stroke-linecap="round" stroke-width="2.56" d="M23.361 8.134c1.765 1.839 2.844 4.23 3.053 6.771s-.462 5.076-1.902 7.18c-1.44 2.104-3.561 3.647-6.006 4.371s-5.064.584-7.417-.397M7.358 23.5c-1.762-1.84-2.836-4.231-3.044-6.77s.465-5.072 1.904-7.174 3.558-3.644 6.001-4.369c2.442-.724 5.06-.586 7.412.391"/>
    </symbol>
    <symbol id="Tools" viewBox="0 0 31 32">
      <path stroke-linejoin="round" stroke-linecap="round" stroke-width="2.56" d="M6.893 27.865c-.482.482-1.136.753-1.818.753s-1.336-.271-1.818-.753c-.482-.482-.753-1.136-.753-1.818s.271-1.336.753-1.818l7.272-7.267 3.636 3.636-7.272 7.267zM22.649 8.474l-10.301 10.301M25.071 8.474c-.322.321-.758.502-1.212.502s-.89-.181-1.212-.502-.502-.758-.502-1.212c0-.455.181-.891.502-1.212l3.03-3.028 2.424 2.422-3.03 3.03zM13.634 11.614l-2.617-2.622c.305-.776.376-1.623.206-2.439s-.574-1.564-1.163-2.154c-.689-.684-1.593-1.111-2.56-1.209.41.656.586 1.431.499 2.2s-.432 1.485-.979 2.032c-.547.547-1.263.893-2.031.98s-1.544-.088-2.2-.497c.068.653.287 1.281.638 1.835s.827 1.02 1.388 1.36c.561.34 1.194.545 1.848.6s1.312-.043 1.922-.285l1.801 1.801M17.915 20.744l2.028 2.027c-.36.916-.393 1.929-.094 2.867s.912 1.744 1.736 2.284c.824.539 1.808.778 2.787.677s1.894-.536 2.59-1.232c.696-.696 1.131-1.611 1.232-2.59s-.138-1.963-.677-2.787-1.346-1.436-2.284-1.735c-.938-.299-1.95-.266-2.867.094l-2.869-2.869"/>
      <path stroke-linejoin="round" stroke-linecap="round" stroke-width="2.56" d="M23.627 24.030c0.060-0.060 0.136-0.101 0.219-0.117s0.169-0.008 0.248 0.024 0.145 0.087 0.192 0.158c0.047 0.070 0.072 0.153 0.072 0.238s-0.025 0.168-0.072 0.238c-0.047 0.071-0.114 0.125-0.192 0.158s-0.164 0.041-0.248 0.024c-0.083-0.017-0.16-0.057-0.219-0.117-0.080-0.080-0.125-0.189-0.125-0.303s0.045-0.222 0.125-0.303"/>
    </symbol>
    <symbol id="User" viewBox="0 0 31 32">
      <path stroke-linejoin="round" stroke-linecap="round" stroke-width="2.56" d="M4.16 28.621v-1.6c0-1.471 0.29-2.927 0.853-4.286s1.388-2.594 2.428-3.634c1.040-1.040 2.275-1.865 3.634-2.428s2.815-0.852 4.286-0.852 2.927 0.29 4.286 0.852c1.359 0.563 2.594 1.388 3.634 2.428s1.865 2.275 2.428 3.634c0.563 1.359 0.853 2.815 0.853 4.286v1.6"/>
      <path stroke-linejoin="round" stroke-linecap="round" stroke-width="2.56" d="M15.36 15.821c1.697 0 3.325-0.674 4.525-1.875s1.875-2.828 1.875-4.525-0.674-3.325-1.875-4.525c-1.2-1.2-2.828-1.875-4.525-1.875s-3.325 0.674-4.525 1.875c-1.2 1.2-1.875 2.828-1.875 4.525s0.674 3.325 1.875 4.525c1.2 1.2 2.828 1.875 4.525 1.875v0z"/>
    </symbol>
    <symbol id="Web" viewBox="0 0 31 32">
      <path stroke-linejoin="round" stroke-linecap="round" stroke-width="2.56" d="M15.362 28.16c2.531 0 5.006-.751 7.111-2.158s3.745-3.406 4.713-5.744 1.222-4.912.728-7.395c-.494-2.483-1.713-4.763-3.503-6.553s-4.071-3.009-6.553-3.503c-2.483-.494-5.056-.241-7.395.728s-4.338 2.609-5.745 4.714c-1.407 2.105-2.158 4.579-2.158 7.111 0 1.681.331 3.346.974 4.899s1.586 2.965 2.775 4.154c1.189 1.189 2.6 2.132 4.154 2.775s3.218.974 4.899.974v0zM3.203 19.374h23.954M3.203 11.342h23.954"/>
      <path stroke-linejoin="round" stroke-linecap="round" stroke-width="2.56" d="M12.6 2.859c-2.297 8.289-1.959 17.088.968 25.176M18.12 2.859c1.004 3.607 1.51 7.335 1.506 11.079.01 4.807-.822 9.578-2.458 14.097"/>
    </symbol>
    <symbol id="Facebook" viewBox="0 0 30 32">
      <path d="M17.33 29.502v-12.512h4.411l0.66-4.876h-5.071v-3.113c0-1.412 0.412-2.374 2.538-2.374l2.712-0.001v-4.361c-0.469-0.059-2.079-0.192-3.952-0.192-3.91 0-6.587 2.272-6.587 6.445v3.596h-4.422v4.876h4.422v12.511l5.289 0z"/>
    </symbol>
    <symbol id="Github" viewBox="0 0 30 32">
      <path d="M15.238 2.073c-7.573 0-13.714 6.14-13.714 13.714 0 6.059 3.93 11.2 9.379 13.014 0.685 0.127 0.937-0.298 0.937-0.66 0-0.327-0.013-1.407-0.019-2.553-3.815 0.83-4.621-1.618-4.621-1.618-0.624-1.585-1.523-2.007-1.523-2.007-1.244-0.851 0.094-0.834 0.094-0.834 1.377 0.097 2.102 1.413 2.102 1.413 1.223 2.097 3.208 1.49 3.991 1.14 0.123-0.886 0.479-1.491 0.871-1.834-3.046-0.347-6.248-1.523-6.248-6.778 0-1.497 0.536-2.721 1.413-3.681-0.142-0.345-0.612-1.74 0.133-3.629 0 0 1.152-0.369 3.772 1.406 1.094-0.304 2.267-0.456 3.433-0.461 1.166 0.005 2.34 0.157 3.436 0.461 2.618-1.774 3.768-1.406 3.768-1.406 0.747 1.889 0.277 3.284 0.135 3.629 0.879 0.96 1.411 2.184 1.411 3.681 0 5.267-3.208 6.427-6.262 6.767 0.492 0.426 0.93 1.26 0.93 2.54 0 1.835-0.016 3.312-0.016 3.764 0 0.365 0.247 0.793 0.942 0.658 5.446-1.816 9.371-6.954 9.371-13.012 0-7.574-6.14-13.714-13.714-13.714z"/>
      <path d="M6.66 21.609c-0.030 0.068-0.137 0.089-0.235 0.042-0.099-0.045-0.155-0.138-0.123-0.206 0.030-0.070 0.137-0.090 0.236-0.043 0.1 0.045 0.157 0.139 0.122 0.207zM7.335 22.211c-0.065 0.061-0.193 0.032-0.28-0.063-0.090-0.096-0.106-0.223-0.040-0.285 0.067-0.061 0.191-0.032 0.281 0.063 0.090 0.097 0.107 0.224 0.039 0.285h0zM7.798 22.982c-0.084 0.058-0.222 0.004-0.306-0.118s-0.084-0.268 0.002-0.327c0.085-0.059 0.221-0.006 0.307 0.115 0.084 0.124 0.084 0.27-0.002 0.33h0zM8.581 23.873c-0.075 0.083-0.235 0.061-0.352-0.052-0.12-0.111-0.153-0.268-0.078-0.35s0.237-0.060 0.355 0.053c0.119 0.11 0.155 0.268 0.075 0.35h-0zM9.592 24.175c-0.033 0.107-0.187 0.156-0.343 0.11-0.155-0.047-0.257-0.173-0.225-0.281s0.187-0.159 0.344-0.11c0.155 0.047 0.257 0.172 0.224 0.281h-0zM10.743 24.302c0.004 0.113-0.128 0.207-0.291 0.209-0.164 0.003-0.297-0.088-0.298-0.199 0-0.114 0.129-0.207 0.293-0.21s0.297 0.088 0.297 0.2zM11.874 24.259c0.020 0.11-0.094 0.224-0.256 0.254-0.159 0.029-0.307-0.039-0.327-0.148-0.020-0.113 0.096-0.226 0.255-0.256 0.162-0.028 0.307 0.038 0.328 0.15z"/>
    </symbol>
    <symbol id="LinkedIn" viewBox="0 0 30 32">
      <path d="M1.524 5.107c0-0.88 0.309-1.605 0.927-2.177s1.421-0.858 2.409-0.858c0.971 0 1.756 0.281 2.356 0.844 0.618 0.58 0.927 1.337 0.927 2.269 0 0.844-0.3 1.548-0.9 2.111-0.618 0.58-1.43 0.871-2.436 0.871h-0.026c-0.971 0-1.756-0.29-2.356-0.871s-0.9-1.311-0.9-2.19zM1.868 28.195v-17.626h5.878v17.626h-5.878zM11.002 28.195h5.878v-9.842c0-0.616 0.071-1.091 0.212-1.425 0.247-0.598 0.622-1.104 1.125-1.517s1.134-0.62 1.893-0.62c1.977 0 2.965 1.328 2.965 3.984v9.42h5.878v-10.106c0-2.603-0.618-4.578-1.853-5.924s-2.868-2.019-4.898-2.019c-2.277 0-4.051 0.976-5.322 2.929v0.053h-0.026l0.026-0.053v-2.507h-5.878c0.035 0.563 0.053 2.313 0.053 5.251s-0.018 7.063-0.053 12.375z"/>
    </symbol>
    <symbol id="Telegram" viewBox="0 0 30 32">
      <path d="M3.205 14.998c0 0 12.131-4.979 16.338-6.732 1.613-0.701 7.082-2.945 7.082-2.945s2.524-0.982 2.314 1.402c-0.070 0.982-0.631 4.418-1.192 8.134-0.841 5.259-1.753 11.009-1.753 11.009s-0.14 1.613-1.332 1.893c-1.192 0.281-3.155-0.982-3.506-1.262-0.281-0.21-5.259-3.366-7.082-4.909-0.491-0.421-1.052-1.262 0.070-2.244 2.524-2.314 5.54-5.189 7.363-7.012 0.841-0.841 1.683-2.805-1.823-0.421-4.979 3.436-9.887 6.662-9.887 6.662s-1.122 0.701-3.226 0.070c-2.104-0.631-4.558-1.473-4.558-1.473s-1.683-1.052 1.192-2.174z"/>
    </symbol>
    <symbol id="Twitter" viewBox="0 0 30 32">
      <path d="M19.851 5.125v-0.005h1.286l0.47 0.094c0.313 0.061 0.598 0.141 0.853 0.24s0.503 0.214 0.742 0.346c0.239 0.132 0.456 0.266 0.651 0.403 0.193 0.135 0.366 0.278 0.519 0.43 0.152 0.153 0.388 0.193 0.71 0.119s0.668-0.177 1.039-0.309c0.371-0.132 0.738-0.28 1.101-0.445s0.584-0.269 0.663-0.314c0.078-0.046 0.119-0.071 0.124-0.074l0.005-0.007 0.025-0.012 0.074-0.037 0.005-0.007 0.015-0.010 0.005-0.007 0.025-0.007 0.025-0.005-0.005 0.037-0.007 0.037-0.025 0.074-0.025 0.049-0.012 0.037c-0.008 0.025-0.017 0.058-0.025 0.099s-0.087 0.206-0.235 0.494c-0.148 0.288-0.334 0.58-0.556 0.877s-0.422 0.52-0.598 0.672c-0.178 0.153-0.296 0.26-0.354 0.321-0.058 0.063-0.128 0.12-0.21 0.173l-0.124 0.082-0.049 0.025-0.005 0.007-0.007 0.005-0.007 0.005-0.005 0.007-0.049 0.025-0.005 0.007-0.007 0.005-0.007 0.005-0.005 0.007-0.005 0.007-0.007 0.005-0.007 0.005-0.005 0.007h0.124l0.692-0.148c0.462-0.099 0.903-0.218 1.323-0.358l0.779-0.259 0.099-0.049 0.049-0.007 0.050-0.005v0.049l-0.012 0.005-0.012 0.007-0.005 0.007-0.007 0.005-0.007 0.005-0.005 0.007-0.005 0.007-0.007 0.005-0.007 0.005-0.005 0.007-0.005 0.007-0.007 0.005-0.025 0.049-0.007 0.005c-0.003 0.005-0.108 0.145-0.314 0.42-0.206 0.277-0.317 0.417-0.334 0.42-0.016 0.005-0.039 0.030-0.069 0.074-0.028 0.046-0.203 0.23-0.524 0.551s-0.636 0.607-0.945 0.857c-0.31 0.252-0.467 0.561-0.47 0.929-0.005 0.366-0.024 0.779-0.057 1.24s-0.095 0.959-0.186 1.494c-0.091 0.535-0.231 1.14-0.42 1.815s-0.42 1.334-0.693 1.976c-0.272 0.642-0.556 1.218-0.853 1.729s-0.569 0.943-0.816 1.297c-0.247 0.354-0.499 0.687-0.754 1s-0.579 0.665-0.969 1.057c-0.392 0.39-0.607 0.604-0.643 0.642-0.038 0.036-0.199 0.171-0.485 0.405-0.284 0.235-0.589 0.471-0.915 0.706-0.325 0.234-0.623 0.429-0.895 0.585s-0.6 0.335-0.984 0.536c-0.383 0.203-0.796 0.39-1.242 0.563s-0.915 0.334-1.41 0.482c-0.495 0.148-0.973 0.263-1.434 0.346s-0.985 0.152-1.571 0.21l-0.878 0.086v0.012h-1.608v-0.012l-0.21-0.012c-0.14-0.008-0.256-0.016-0.346-0.025s-0.433-0.053-1.026-0.136c-0.594-0.082-1.059-0.165-1.397-0.247s-0.841-0.239-1.509-0.469c-0.668-0.231-1.239-0.464-1.714-0.699-0.473-0.234-0.77-0.382-0.89-0.445-0.119-0.061-0.252-0.137-0.401-0.227l-0.223-0.136-0.005-0.007-0.015-0.010-0.005-0.007-0.049-0.025-0.005-0.007-0.007-0.005-0.007-0.005-0.005-0.007-0.005-0.007-0.007-0.005h-0.012v-0.049l0.025 0.005 0.025 0.007 0.111 0.012c0.074 0.008 0.276 0.021 0.606 0.037s0.68 0.016 1.051 0c0.371-0.016 0.75-0.053 1.138-0.111s0.845-0.156 1.373-0.296c0.528-0.14 1.012-0.306 1.454-0.499 0.44-0.194 0.754-0.339 0.94-0.435 0.185-0.094 0.467-0.268 0.846-0.524l0.569-0.383 0.005-0.007 0.007-0.005 0.007-0.005 0.010-0.015 0.007-0.005 0.007-0.005 0.005-0.007 0.025-0.007 0.025-0.005 0.005-0.025 0.007-0.025 0.007-0.005 0.005-0.007-0.198-0.012c-0.132-0.008-0.26-0.016-0.383-0.025s-0.317-0.045-0.581-0.111c-0.264-0.066-0.548-0.165-0.853-0.296s-0.602-0.288-0.89-0.469c-0.289-0.181-0.497-0.332-0.626-0.452-0.127-0.119-0.292-0.287-0.495-0.504-0.201-0.219-0.376-0.444-0.524-0.674s-0.29-0.496-0.425-0.798l-0.205-0.45-0.012-0.037-0.012-0.037-0.007-0.025-0.005-0.025 0.037 0.005 0.037 0.007 0.272 0.037c0.181 0.025 0.466 0.033 0.853 0.025s0.655-0.025 0.804-0.049c0.148-0.025 0.239-0.041 0.272-0.050l0.049-0.012 0.124-0.025 0.005-0.007 0.007-0.005 0.007-0.005 0.005-0.007-0.247-0.062c-0.033-0.008-0.091-0.025-0.173-0.049s-0.305-0.115-0.668-0.272c-0.363-0.157-0.651-0.309-0.866-0.457s-0.42-0.311-0.613-0.487c-0.193-0.178-0.405-0.407-0.636-0.687s-0.437-0.605-0.618-0.976c-0.181-0.37-0.317-0.725-0.408-1.062-0.090-0.336-0.15-0.679-0.178-1.025l-0.045-0.519 0.025 0.005 0.025 0.007 0.099 0.049 0.383 0.173c0.256 0.115 0.573 0.214 0.952 0.296s0.606 0.128 0.68 0.136l0.111 0.012h0.223l-0.005-0.007-0.007-0.005-0.007-0.005-0.010-0.015-0.007-0.005-0.007-0.005-0.005-0.007-0.049-0.025-0.005-0.007-0.007-0.005-0.007-0.005-0.005-0.007-0.049-0.025-0.005-0.007c-0.005-0.003-0.076-0.056-0.213-0.158-0.135-0.104-0.277-0.238-0.425-0.403s-0.297-0.338-0.445-0.519c-0.149-0.182-0.281-0.376-0.396-0.58-0.115-0.206-0.237-0.468-0.366-0.785-0.127-0.316-0.223-0.635-0.289-0.956s-0.103-0.638-0.111-0.951c-0.008-0.313 0-0.58 0.025-0.803s0.074-0.473 0.148-0.753c0.074-0.28 0.181-0.576 0.322-0.889l0.21-0.469 0.012-0.037 0.012-0.037 0.007-0.005 0.010-0.015 0.007-0.005 0.007 0.005 0.010 0.015 0.007 0.005 0.007 0.005 0.010 0.015 0.007 0.005 0.012 0.025 0.012 0.025 0.007 0.005 0.005 0.007 0.334 0.37c0.223 0.247 0.486 0.523 0.791 0.827s0.474 0.463 0.507 0.474c0.033 0.013 0.074 0.051 0.124 0.114 0.049 0.061 0.214 0.207 0.495 0.437s0.647 0.498 1.101 0.803c0.453 0.305 0.956 0.605 1.509 0.902s1.146 0.564 1.781 0.803c0.635 0.239 1.080 0.395 1.336 0.469s0.693 0.169 1.311 0.284c0.618 0.115 1.084 0.189 1.397 0.222s0.528 0.052 0.643 0.057l0.173 0.005-0.005-0.037-0.007-0.037-0.049-0.309c-0.033-0.206-0.049-0.494-0.049-0.864s0.029-0.712 0.087-1.025c0.058-0.313 0.144-0.63 0.26-0.951s0.228-0.579 0.339-0.773c0.112-0.193 0.259-0.412 0.44-0.659s0.416-0.502 0.705-0.766c0.288-0.263 0.618-0.498 0.989-0.704s0.713-0.362 1.026-0.469 0.577-0.177 0.791-0.21c0.214-0.033 0.322-0.052 0.322-0.057z"/>
    </symbol>
    <symbol id="YouTube" viewBox="0 0 30 32">
      <path d="M16.641 25.56l-5.94-0.111c-1.923-0.039-3.851 0.039-5.737-0.362-2.868-0.599-3.071-3.535-3.284-5.998-0.293-3.462-0.18-6.988 0.373-10.421 0.312-1.927 1.54-3.076 3.44-3.201 6.412-0.454 12.868-0.4 19.266-0.188 0.676 0.019 1.356 0.126 2.022 0.246 3.289 0.589 3.369 3.916 3.582 6.717 0.213 2.83 0.123 5.674-0.284 8.485-0.326 2.327-0.95 4.278-3.582 4.467-3.299 0.246-6.521 0.445-9.829 0.382 0-0.015-0.019-0.015-0.028-0.015zM13.149 19.669c2.486-1.458 4.924-2.893 7.395-4.341-2.49-1.458-4.924-2.893-7.395-4.341v8.683z"/>
    </symbol>
    <symbol id="instagram" viewBox="0 0 32 32">
      <path d="M16 2.881c4.275 0 4.781 0.019 6.462 0.094 1.563 0.069 2.406 0.331 2.969 0.55 0.744 0.288 1.281 0.638 1.837 1.194 0.563 0.563 0.906 1.094 1.2 1.838 0.219 0.563 0.481 1.412 0.55 2.969 0.075 1.688 0.094 2.194 0.094 6.463s-0.019 4.781-0.094 6.463c-0.069 1.563-0.331 2.406-0.55 2.969-0.288 0.744-0.637 1.281-1.194 1.837-0.563 0.563-1.094 0.906-1.837 1.2-0.563 0.219-1.413 0.481-2.969 0.55-1.688 0.075-2.194 0.094-6.463 0.094s-4.781-0.019-6.463-0.094c-1.563-0.069-2.406-0.331-2.969-0.55-0.744-0.288-1.281-0.637-1.838-1.194-0.563-0.563-0.906-1.094-1.2-1.837-0.219-0.563-0.481-1.413-0.55-2.969-0.075-1.688-0.094-2.194-0.094-6.463s0.019-4.781 0.094-6.463c0.069-1.563 0.331-2.406 0.55-2.969 0.288-0.744 0.638-1.281 1.194-1.838 0.563-0.563 1.094-0.906 1.838-1.2 0.563-0.219 1.412-0.481 2.969-0.55 1.681-0.075 2.188-0.094 6.463-0.094zM16 0c-4.344 0-4.887 0.019-6.594 0.094-1.7 0.075-2.869 0.35-3.881 0.744-1.056 0.412-1.95 0.956-2.837 1.85-0.894 0.888-1.438 1.781-1.85 2.831-0.394 1.019-0.669 2.181-0.744 3.881-0.075 1.713-0.094 2.256-0.094 6.6s0.019 4.887 0.094 6.594c0.075 1.7 0.35 2.869 0.744 3.881 0.413 1.056 0.956 1.95 1.85 2.837 0.887 0.887 1.781 1.438 2.831 1.844 1.019 0.394 2.181 0.669 3.881 0.744 1.706 0.075 2.25 0.094 6.594 0.094s4.888-0.019 6.594-0.094c1.7-0.075 2.869-0.35 3.881-0.744 1.050-0.406 1.944-0.956 2.831-1.844s1.438-1.781 1.844-2.831c0.394-1.019 0.669-2.181 0.744-3.881 0.075-1.706 0.094-2.25 0.094-6.594s-0.019-4.887-0.094-6.594c-0.075-1.7-0.35-2.869-0.744-3.881-0.394-1.063-0.938-1.956-1.831-2.844-0.887-0.887-1.781-1.438-2.831-1.844-1.019-0.394-2.181-0.669-3.881-0.744-1.712-0.081-2.256-0.1-6.6-0.1v0z"/>
      <path d="M16 7.781c-4.537 0-8.219 3.681-8.219 8.219s3.681 8.219 8.219 8.219 8.219-3.681 8.219-8.219c0-4.537-3.681-8.219-8.219-8.219zM16 21.331c-2.944 0-5.331-2.387-5.331-5.331s2.387-5.331 5.331-5.331c2.944 0 5.331 2.387 5.331 5.331s-2.387 5.331-5.331 5.331zM26.462 7.456c0 1.06-.859 1.919-1.919 1.919s-1.919-.859-1.919-1.919c0-1.06.859-1.919 1.919-1.919s1.919.859 1.919 1.919z"/>
    </symbol>
  </defs>
</svg>